<?xml version="1.0" encoding="UTF-8" standalone="no"?>
<!DOCTYPE svg PUBLIC "-//W3C//DTD SVG 1.1//EN"
 "http://www.w3.org/Graphics/SVG/1.1/DTD/svg11.dtd">
<!-- Generated by graphviz version 2.40.1 (20161225.0304)
 -->
<!-- Title: dependencies Pages: 1 -->
<svg width="568pt" height="290pt"
 viewBox="0.00 0.00 568.00 290.00" xmlns="http://www.w3.org/2000/svg" xmlns:xlink="http://www.w3.org/1999/xlink">
<g id="graph0" class="graph" transform="scale(1 1) rotate(0) translate(4 286)">
<title>dependencies</title>
<polygon fill="#ffffff" stroke="transparent" points="-4,4 -4,-286 564,-286 564,4 -4,4"/>
<text text-anchor="start" x="259.0091" y="-42.4" font-family="sans-serif" font-weight="bold" font-size="14.00" fill="#000000">Legend</text>
<polygon fill="#ffffb3" stroke="transparent" points="46,-10 46,-30 66,-30 66,-10 46,-10"/>
<text text-anchor="start" x="69.629" y="-15.4" font-family="sans-serif" font-size="14.00" fill="#000000"> &#160;Declarations</text>
<polygon fill="#8dd3c7" stroke="transparent" points="159,-10 159,-30 179,-30 179,-10 159,-10"/>
<text text-anchor="start" x="182.7251" y="-15.4" font-family="sans-serif" font-size="14.00" fill="#000000"> &#160;Module</text>
<polygon fill="#80b1d3" stroke="transparent" points="245,-10 245,-30 265,-30 265,-10 245,-10"/>
<text text-anchor="start" x="268.7812" y="-15.4" font-family="sans-serif" font-size="14.00" fill="#000000"> &#160;Bootstrap</text>
<polygon fill="#fdb462" stroke="transparent" points="342,-10 342,-30 362,-30 362,-10 342,-10"/>
<text text-anchor="start" x="365.6732" y="-15.4" font-family="sans-serif" font-size="14.00" fill="#000000"> &#160;Providers</text>
<polygon fill="#fb8072" stroke="transparent" points="438,-10 438,-30 458,-30 458,-10 438,-10"/>
<text text-anchor="start" x="461.7258" y="-15.4" font-family="sans-serif" font-size="14.00" fill="#000000"> &#160;Exports</text>
<g id="clust1" class="cluster">
<title>cluster_AppModule</title>
<polygon fill="none" stroke="#000000" stroke-dasharray="1,5" points="8,-70 8,-274 260,-274 260,-70 8,-70"/>
</g>
<g id="clust2" class="cluster">
<title>cluster_AppModule_declarations</title>
<polygon fill="none" stroke="#000000" points="16,-78 16,-130 138,-130 138,-78 16,-78"/>
</g>
<g id="clust4" class="cluster">
<title>cluster_AppModule_imports</title>
<polygon fill="none" stroke="#000000" points="146,-78 146,-130 252,-130 252,-78 146,-78"/>
</g>
<g id="clust6" class="cluster">
<title>cluster_AppModule_bootstrap</title>
<polygon fill="none" stroke="#000000" points="72,-214 72,-266 196,-266 196,-214 72,-214"/>
</g>
<g id="clust8" class="cluster">
<title>cluster_ToastModule</title>
<polygon fill="none" stroke="#000000" stroke-dasharray="1,5" points="268,-138 268,-206 552,-206 552,-138 268,-138"/>
</g>
<g id="clust9" class="cluster">
<title>cluster_ToastModule_declarations</title>
<polygon fill="none" stroke="#000000" points="416,-146 416,-198 544,-198 544,-146 416,-146"/>
</g>
<g id="clust12" class="cluster">
<title>cluster_ToastModule_exports</title>
<polygon fill="none" stroke="#000000" points="276,-146 276,-198 408,-198 408,-146 276,-146"/>
</g>
<!-- AppComponent -->
<g id="node1" class="node">
<title>AppComponent</title>
<polygon fill="#ffffb3" stroke="#000000" points="129.9399,-122 24.0601,-122 24.0601,-86 129.9399,-86 129.9399,-122"/>
<text text-anchor="middle" x="77" y="-99.8" font-family="Times,serif" font-size="14.00" fill="#000000">AppComponent</text>
</g>
<!-- AppModule -->
<g id="node2" class="node">
<title>AppModule</title>
<polygon fill="#8dd3c7" stroke="#000000" points="175.6571,-190 172.6571,-194 151.6571,-194 148.6571,-190 92.3429,-190 92.3429,-154 175.6571,-154 175.6571,-190"/>
<text text-anchor="middle" x="134" y="-167.8" font-family="Times,serif" font-size="14.00" fill="#000000">AppModule</text>
</g>
<!-- AppComponent&#45;&gt;AppModule -->
<g id="edge1" class="edge">
<title>AppComponent&#45;&gt;AppModule</title>
<path fill="none" stroke="#000000" d="M110.9457,-122.2228C110.9457,-122.2228 110.9457,-143.7269 110.9457,-143.7269"/>
<polygon fill="#000000" stroke="#000000" points="107.4457,-143.7269 110.9457,-153.7269 114.4457,-143.727 107.4457,-143.7269"/>
</g>
<!-- AppComponent  -->
<g id="node4" class="node">
<title>AppComponent </title>
<polygon fill="#80b1d3" stroke="#000000" points="188.439,-258 79.561,-258 79.561,-222 188.439,-222 188.439,-258"/>
<text text-anchor="middle" x="134" y="-235.8" font-family="Times,serif" font-size="14.00" fill="#000000">AppComponent </text>
</g>
<!-- AppModule&#45;&gt;AppComponent  -->
<g id="edge3" class="edge">
<title>AppModule&#45;&gt;AppComponent </title>
<path fill="none" stroke="#000000" stroke-dasharray="1,5" d="M134,-190.2228C134,-190.2228 134,-211.7269 134,-211.7269"/>
<polygon fill="#000000" stroke="#000000" points="130.5001,-211.7269 134,-221.7269 137.5001,-211.727 130.5001,-211.7269"/>
</g>
<!-- ToastModule -->
<g id="node3" class="node">
<title>ToastModule</title>
<polygon fill="#8dd3c7" stroke="#000000" points="244.1529,-122 241.1529,-126 220.1529,-126 217.1529,-122 153.8471,-122 153.8471,-86 244.1529,-86 244.1529,-122"/>
<text text-anchor="middle" x="199" y="-99.8" font-family="Times,serif" font-size="14.00" fill="#000000">ToastModule</text>
</g>
<!-- ToastModule&#45;&gt;AppModule -->
<g id="edge2" class="edge">
<title>ToastModule&#45;&gt;AppModule</title>
<path fill="none" stroke="#000000" d="M164.7511,-122.2228C164.7511,-122.2228 164.7511,-143.7269 164.7511,-143.7269"/>
<polygon fill="#000000" stroke="#000000" points="161.2511,-143.7269 164.7511,-153.7269 168.2511,-143.727 161.2511,-143.7269"/>
</g>
<!-- ToastComponent  -->
<g id="node6" class="node">
<title>ToastComponent </title>
<polygon fill="#fb8072" stroke="#000000" points="399.9348,-190 284.0652,-190 284.0652,-154 399.9348,-154 399.9348,-190"/>
<text text-anchor="middle" x="342" y="-167.8" font-family="Times,serif" font-size="14.00" fill="#000000">ToastComponent </text>
</g>
<!-- ToastModule&#45;&gt;ToastComponent  -->
<g id="edge5" class="edge">
<title>ToastModule&#45;&gt;ToastComponent </title>
<path fill="none" stroke="#000000" stroke-dasharray="5,2" d="M216.3978,-122.2228C216.3978,-142.3652 216.3978,-172 216.3978,-172 216.3978,-172 273.9785,-172 273.9785,-172"/>
<polygon fill="#000000" stroke="#000000" points="273.9785,-175.5001 283.9785,-172 273.9784,-168.5001 273.9785,-175.5001"/>
</g>
<!-- ToastComponent -->
<g id="node5" class="node">
<title>ToastComponent</title>
<polygon fill="#ffffb3" stroke="#000000" points="536.4356,-190 423.5644,-190 423.5644,-154 536.4356,-154 536.4356,-190"/>
<text text-anchor="middle" x="480" y="-167.8" font-family="Times,serif" font-size="14.00" fill="#000000">ToastComponent</text>
</g>
<!-- ToastComponent&#45;&gt;ToastModule -->
<g id="edge4" class="edge">
<title>ToastComponent&#45;&gt;ToastModule</title>
<path fill="none" stroke="#000000" d="M480,-153.7772C480,-133.6348 480,-104 480,-104 480,-104 254.4598,-104 254.4598,-104"/>
<polygon fill="#000000" stroke="#000000" points="254.4598,-100.5001 244.4598,-104 254.4598,-107.5001 254.4598,-100.5001"/>
</g>
</g>
</svg>
